<?xml version="1.0" encoding="utf-8"?><svg xmlns="http://www.w3.org/2000/svg" xmlns:xlink="http://www.w3.org/1999/xlink" width="1347" height="607" preserveAspectRatio="xMidYMid" viewBox="0 0 1347 607" style="z-index:1;margin-right:-2px;display:block;background-color:rgb(19, 19, 20);animation-play-state:paused" ><g transform="translate(673.5,303.5) scale(1,1) translate(-673.5,-303.5)" style="transform:matrix(1, 0, 0, 1, 0, 0);animation-play-state:paused" ><path d="M 0 336.5 C 225 336.5 449 427.5 674 427.5 C 899 427.5 1123 336.5 1348 336.5 C 1573 336.5 1797 427.5 2022 427.5 C 2247 427.5 2471 336.5 2696 336.5" fill="none" stroke="rgb(255, 239, 0)" stroke-opacity="0" stroke-width="2" transform="matrix(1,0,0,1,0,0)" style="transform:matrix(1, 0, 0, 1, 0, 0);animation-play-state:paused" ></path>
<path d="M 0 336.514 C 225 336.514 449 427.486 674 427.486 C 899 427.486 1123 336.514 1348 336.514 C 1573 336.514 1797 427.486 2022 427.486 C 2247 427.486 2471 336.514 2696 336.514" fill="none" stroke="rgb(255, 239, 0)" stroke-opacity="0" stroke-width="2" transform="matrix(1,0,0,1,-7.183887481689453,0)" style="transform:matrix(1, 0, 0, 1, -7.18389, 0);animation-play-state:paused" ></path>
<path d="M 0 336.556 C 225 336.556 449 427.444 674 427.444 C 899 427.444 1123 336.556 1348 336.556 C 1573 336.556 1797 427.444 2022 427.444 C 2247 427.444 2471 336.556 2696 336.556" fill="none" stroke="rgb(255, 239, 0)" stroke-opacity="0" stroke-width="2" transform="matrix(1,0,0,1,-14.367774963378906,0)" style="transform:matrix(1, 0, 0, 1, -14.3678, 0);animation-play-state:paused" ></path>
<path d="M 0 336.628 C 225 336.628 449 427.372 674 427.372 C 899 427.372 1123 336.628 1348 336.628 C 1573 336.628 1797 427.372 2022 427.372 C 2247 427.372 2471 336.628 2696 336.628" fill="none" stroke="rgb(254, 238, 0)" stroke-opacity="0" stroke-width="2" transform="matrix(1,0,0,1,-21.552001953125,0)" style="transform:matrix(1, 0, 0, 1, -21.552, 0);animation-play-state:paused" ></path>
<path d="M 0 336.73 C 225 336.73 449 427.27 674 427.27 C 899 427.27 1123 336.73 1348 336.73 C 1573 336.73 1797 427.27 2022 427.27 C 2247 427.27 2471 336.73 2696 336.73" fill="none" stroke="rgb(254, 237, 0)" stroke-opacity="0" stroke-width="2" transform="matrix(1,0,0,1,-28.73588752746582,0)" style="transform:matrix(1, 0, 0, 1, -28.7359, 0);animation-play-state:paused" ></path>
<path d="M 0 336.862 C 225 336.862 449 427.138 674 427.138 C 899 427.138 1123 336.862 1348 336.862 C 1573 336.862 1797 427.138 2022 427.138 C 2247 427.138 2471 336.862 2696 336.862" fill="none" stroke="rgb(253, 236, 0)" stroke-opacity="0" stroke-width="2" transform="matrix(1,0,0,1,-35.919776916503906,0)" style="transform:matrix(1, 0, 0, 1, -35.9198, 0);animation-play-state:paused" ></path>
<path d="M 0 337.027 C 225 337.027 449 426.973 674 426.973 C 899 426.973 1123 337.027 1348 337.027 C 1573 337.027 1797 426.973 2022 426.973 C 2247 426.973 2471 337.027 2696 337.027" fill="none" stroke="rgb(252, 235, 0)" stroke-opacity="0" stroke-width="2" transform="matrix(1,0,0,1,-43.10400390625,0)" style="transform:matrix(1, 0, 0, 1, -43.104, 0);animation-play-state:paused" ></path>
<path d="M 0 337.224 C 225 337.224 449 426.776 674 426.776 C 899 426.776 1123 337.224 1348 337.224 C 1573 337.224 1797 426.776 2022 426.776 C 2247 426.776 2471 337.224 2696 337.224" fill="none" stroke="rgb(251, 233, 0)" stroke-opacity="0" stroke-width="2" transform="matrix(1,0,0,1,-50.28788757324219,0)" style="transform:matrix(1, 0, 0, 1, -50.2879, 0);animation-play-state:paused" ></path>
<path d="M 0 337.456 C 225 337.456 449 426.545 674 426.545 C 899 426.545 1123 337.456 1348 337.456 C 1573 337.456 1797 426.545 2022 426.545 C 2247 426.545 2471 337.456 2696 337.456" fill="none" stroke="rgb(249, 232, 0)" stroke-opacity="0" stroke-width="2" transform="matrix(1,0,0,1,-57.47177505493164,0)" style="transform:matrix(1, 0, 0, 1, -57.4718, 0);animation-play-state:paused" ></path>
<path d="M 0 337.722 C 225 337.722 449 426.278 674 426.278 C 899 426.278 1123 337.722 1348 337.722 C 1573 337.722 1797 426.278 2022 426.278 C 2247 426.278 2471 337.722 2696 337.722" fill="none" stroke="rgb(248, 229, 0)" stroke-opacity="0" stroke-width="2" transform="matrix(1,0,0,1,-64.65599822998047,0)" style="transform:matrix(1, 0, 0, 1, -64.656, 0);animation-play-state:paused" ></path>
<path d="M 0 338.024 C 225 338.024 449 425.976 674 425.976 C 899 425.976 1123 338.024 1348 338.024 C 1573 338.024 1797 425.976 2022 425.976 C 2247 425.976 2471 338.024 2696 338.024" fill="none" stroke="rgb(246, 227, 0)" stroke-opacity="0" stroke-width="2" transform="matrix(1,0,0,1,-71.83988952636719,0)" style="transform:matrix(1, 0, 0, 1, -71.8399, 0);animation-play-state:paused" ></path>
<path d="M 0 338.363 C 225 338.363 449 425.637 674 425.637 C 899 425.637 1123 338.363 1348 338.363 C 1573 338.363 1797 425.637 2022 425.637 C 2247 425.637 2471 338.363 2696 338.363" fill="none" stroke="rgb(244, 224, 1)" stroke-opacity="0" stroke-width="2" transform="matrix(1,0,0,1,-79.0237808227539,0)" style="transform:matrix(1, 0, 0, 1, -79.0238, 0);animation-play-state:paused" ></path>
<path d="M 0 338.74 C 225 338.74 449 425.26 674 425.26 C 899 425.26 1123 338.74 1348 338.74 C 1573 338.74 1797 425.26 2022 425.26 C 2247 425.26 2471 338.74 2696 338.74" fill="none" stroke="rgb(241, 221, 1)" stroke-opacity="0" stroke-width="2" transform="matrix(1,0,0,1,-86.2080078125,0)" style="transform:matrix(1, 0, 0, 1, -86.208, 0);animation-play-state:paused" ></path>
<path d="M 0 339.156 C 225 339.156 449 424.844 674 424.844 C 899 424.844 1123 339.156 1348 339.156 C 1573 339.156 1797 424.844 2022 424.844 C 2247 424.844 2471 339.156 2696 339.156" fill="none" stroke="rgb(239, 217, 1)" stroke-opacity="0" stroke-width="2" transform="matrix(1,0,0,1,-93.39188385009766,0)" style="transform:matrix(1, 0, 0, 1, -93.3919, 0);animation-play-state:paused" ></path>
<path d="M 0 339.612 C 225 339.612 449 424.388 674 424.388 C 899 424.388 1123 339.612 1348 339.612 C 1573 339.612 1797 424.388 2022 424.388 C 2247 424.388 2471 339.612 2696 339.612" fill="none" stroke="rgb(236, 213, 1)" stroke-opacity="0" stroke-width="2" transform="matrix(1,0,0,1,-100.57577514648438,0)" style="transform:matrix(1, 0, 0, 1, -100.576, 0);animation-play-state:paused" ></path>
<path d="M 0 340.11 C 225 340.11 449 423.89 674 423.89 C 899 423.89 1123 340.11 1348 340.11 C 1573 340.11 1797 423.89 2022 423.89 C 2247 423.89 2471 340.11 2696 340.11" fill="none" stroke="rgb(232, 209, 1)" stroke-opacity="0" stroke-width="2" transform="matrix(1,0,0,1,-107.75999450683594,0)" style="transform:matrix(1, 0, 0, 1, -107.76, 0);animation-play-state:paused" ></path>
<path d="M 0 340.651 C 225 340.651 449 423.349 674 423.349 C 899 423.349 1123 340.651 1348 340.651 C 1573 340.651 1797 423.349 2022 423.349 C 2247 423.349 2471 340.651 2696 340.651" fill="none" stroke="rgb(229, 204, 1)" stroke-opacity="0" stroke-width="2" transform="matrix(1,0,0,1,-114.94388580322266,0)" style="transform:matrix(1, 0, 0, 1, -114.944, 0);animation-play-state:paused" ></path>
<path d="M 0 341.236 C 225 341.236 449 422.764 674 422.764 C 899 422.764 1123 341.236 1348 341.236 C 1573 341.236 1797 422.764 2022 422.764 C 2247 422.764 2471 341.236 2696 341.236" fill="none" stroke="rgb(225, 199, 1)" stroke-opacity="0" stroke-width="2" transform="matrix(1,0,0,1,-122.12777709960938,0)" style="transform:matrix(1, 0, 0, 1, -122.128, 0);animation-play-state:paused" ></path>
<path d="M 0 341.866 C 225 341.866 449 422.134 674 422.134 C 899 422.134 1123 341.866 1348 341.866 C 1573 341.866 1797 422.134 2022 422.134 C 2247 422.134 2471 341.866 2696 341.866" fill="none" stroke="rgb(220, 193, 2)" stroke-opacity="0" stroke-width="2" transform="matrix(1,0,0,1,-129.31199645996094,0)" style="transform:matrix(1, 0, 0, 1, -129.312, 0);animation-play-state:paused" ></path>
<path d="M 0 342.543 C 225 342.543 449 421.457 674 421.457 C 899 421.457 1123 342.543 1348 342.543 C 1573 342.543 1797 421.457 2022 421.457 C 2247 421.457 2471 342.543 2696 342.543" fill="none" stroke="rgb(216, 187, 2)" stroke-opacity="0" stroke-width="2" transform="matrix(1,0,0,1,-136.4958953857422,0)" style="transform:matrix(1, 0, 0, 1, -136.496, 0);animation-play-state:paused" ></path>
<path d="M 0 343.267 C 225 343.267 449 420.733 674 420.733 C 899 420.733 1123 343.267 1348 343.267 C 1573 343.267 1797 420.733 2022 420.733 C 2247 420.733 2471 343.267 2696 343.267" fill="none" stroke="rgb(211, 181, 2)" stroke-opacity="0" stroke-width="2" transform="matrix(1,0,0,1,-143.67977905273438,0)" style="transform:matrix(1, 0, 0, 1, -143.68, 0);animation-play-state:paused" ></path>
<path d="M 0 344.04 C 225 344.04 449 419.96 674 419.96 C 899 419.96 1123 344.04 1348 344.04 C 1573 344.04 1797 419.96 2022 419.96 C 2247 419.96 2471 344.04 2696 344.04" fill="none" stroke="rgb(206, 175, 2)" stroke-opacity="0" stroke-width="2" transform="matrix(1,0,0,1,-150.86399841308594,0)" style="transform:matrix(1, 0, 0, 1, -150.864, 0);animation-play-state:paused" ></path>
<path d="M 0 344.863 C 225 344.863 449 419.137 674 419.137 C 899 419.137 1123 344.863 1348 344.863 C 1573 344.863 1797 419.137 2022 419.137 C 2247 419.137 2471 344.863 2696 344.863" fill="none" stroke="rgb(201, 168, 3)" stroke-opacity="0" stroke-width="2" transform="matrix(1,0,0,1,-158.04788208007812,0)" style="transform:matrix(1, 0, 0, 1, -158.048, 0);animation-play-state:paused" ></path>
<path d="M 0 345.737 C 225 345.737 449 418.263 674 418.263 C 899 418.263 1123 345.737 1348 345.737 C 1573 345.737 1797 418.263 2022 418.263 C 2247 418.263 2471 345.737 2696 345.737" fill="none" stroke="rgb(196, 161, 3)" stroke-opacity="0" stroke-width="2" transform="matrix(1,0,0,1,-165.23178100585938,0)" style="transform:matrix(1, 0, 0, 1, -165.232, 0);animation-play-state:paused" ></path>
<path d="M 0 346.664 C 225 346.664 449 417.336 674 417.336 C 899 417.336 1123 346.664 1348 346.664 C 1573 346.664 1797 417.336 2022 417.336 C 2247 417.336 2471 346.664 2696 346.664" fill="none" stroke="rgb(191, 154, 3)" stroke-opacity="0" stroke-width="2" transform="matrix(1,0,0,1,-172.416015625,0)" style="transform:matrix(1, 0, 0, 1, -172.416, 0);animation-play-state:paused" ></path>
<path d="M 0 347.644 C 225 347.644 449 416.356 674 416.356 C 899 416.356 1123 347.644 1348 347.644 C 1573 347.644 1797 416.356 2022 416.356 C 2247 416.356 2471 347.644 2696 347.644" fill="none" stroke="rgb(185, 147, 3)" stroke-opacity="0" stroke-width="2" transform="matrix(1,0,0,1,-179.59988403320312,0)" style="transform:matrix(1, 0, 0, 1, -179.6, 0);animation-play-state:paused" ></path>
<path d="M 0 348.679 C 225 348.679 449 415.321 674 415.321 C 899 415.321 1123 348.679 1348 348.679 C 1573 348.679 1797 415.321 2022 415.321 C 2247 415.321 2471 348.679 2696 348.679" fill="none" stroke="rgb(180, 141, 4)" stroke-opacity="0" stroke-width="2" transform="matrix(1,0,0,1,-186.7837677001953,0)" style="transform:matrix(1, 0, 0, 1, -186.784, 0);animation-play-state:paused" ></path>
<path d="M 0 349.769 C 225 349.769 449 414.231 674 414.231 C 899 414.231 1123 349.769 1348 349.769 C 1573 349.769 1797 414.231 2022 414.231 C 2247 414.231 2471 349.769 2696 349.769" fill="none" stroke="rgb(175, 134, 4)" stroke-opacity="0" stroke-width="2" transform="matrix(1,0,0,1,-193.96798706054688,0)" style="transform:matrix(1, 0, 0, 1, -193.968, 0);animation-play-state:paused" ></path>
<path d="M 0 350.915 C 225 350.915 449 413.085 674 413.085 C 899 413.085 1123 350.915 1348 350.915 C 1573 350.915 1797 413.085 2022 413.085 C 2247 413.085 2471 350.915 2696 350.915" fill="none" stroke="rgb(171, 128, 4)" stroke-opacity="0" stroke-width="2" transform="matrix(1,0,0,1,-201.15188598632812,0)" style="transform:matrix(1, 0, 0, 1, -201.152, 0);animation-play-state:paused" ></path>
<path d="M 0 352.118 C 225 352.118 449 411.882 674 411.882 C 899 411.882 1123 352.118 1348 352.118 C 1573 352.118 1797 411.882 2022 411.882 C 2247 411.882 2471 352.118 2696 352.118" fill="none" stroke="rgb(166, 122, 4)" stroke-opacity="0" stroke-width="2" transform="matrix(1,0,0,1,-208.3357696533203,0)" style="transform:matrix(1, 0, 0, 1, -208.336, 0);animation-play-state:paused" ></path>
<path d="M 0 353.378 C 225 353.378 449 410.622 674 410.622 C 899 410.622 1123 353.378 1348 353.378 C 1573 353.378 1797 410.622 2022 410.622 C 2247 410.622 2471 353.378 2696 353.378" fill="none" stroke="rgb(162, 116, 5)" stroke-opacity="0" stroke-width="2" transform="matrix(1,0,0,1,-215.51998901367188,0)" style="transform:matrix(1, 0, 0, 1, -215.52, 0);animation-play-state:paused" ></path>
<path d="M 0 354.694 C 225 354.694 449 409.306 674 409.306 C 899 409.306 1123 354.694 1348 354.694 C 1573 354.694 1797 409.306 2022 409.306 C 2247 409.306 2471 354.694 2696 354.694" fill="none" stroke="rgb(158, 111, 5)" stroke-opacity="0" stroke-width="2" transform="matrix(1,0,0,1,-222.7039031982422,0)" style="transform:matrix(1, 0, 0, 1, -222.704, 0);animation-play-state:paused" ></path>
<path d="M 0 356.068 C 225 356.068 449 407.932 674 407.932 C 899 407.932 1123 356.068 1348 356.068 C 1573 356.068 1797 407.932 2022 407.932 C 2247 407.932 2471 356.068 2696 356.068" fill="none" stroke="rgb(154, 106, 5)" stroke-opacity="0" stroke-width="2" transform="matrix(1,0,0,1,-229.8877716064453,0)" style="transform:matrix(1, 0, 0, 1, -229.888, 0);animation-play-state:paused" ></path>
<path d="M 0 357.499 C 225 357.499 449 406.501 674 406.501 C 899 406.501 1123 357.499 1348 357.499 C 1573 357.499 1797 406.501 2022 406.501 C 2247 406.501 2471 357.499 2696 357.499" fill="none" stroke="rgb(151, 102, 5)" stroke-opacity="0" stroke-width="2" transform="matrix(1,0,0,1,-237.07200622558594,0)" style="transform:matrix(1, 0, 0, 1, -237.072, 0);animation-play-state:paused" ></path>
<path d="M 0 358.985 C 225 358.985 449 405.015 674 405.015 C 899 405.015 1123 358.985 1348 358.985 C 1573 358.985 1797 405.015 2022 405.015 C 2247 405.015 2471 358.985 2696 358.985" fill="none" stroke="rgb(148, 98, 5)" stroke-opacity="0" stroke-width="2" transform="matrix(1,0,0,1,-244.25587463378906,0)" style="transform:matrix(1, 0, 0, 1, -244.256, 0);animation-play-state:paused" ></path>
<path d="M 0 360.526 C 225 360.526 449 403.474 674 403.474 C 899 403.474 1123 360.526 1348 360.526 C 1573 360.526 1797 403.474 2022 403.474 C 2247 403.474 2471 360.526 2696 360.526" fill="none" stroke="rgb(145, 95, 5)" stroke-opacity="0" stroke-width="2" transform="matrix(1,0,0,1,-251.4397735595703,0)" style="transform:matrix(1, 0, 0, 1, -251.44, 0);animation-play-state:paused" ></path>
<path d="M 0 362.12 C 225 362.12 449 401.88 674 401.88 C 899 401.88 1123 362.12 1348 362.12 C 1573 362.12 1797 401.88 2022 401.88 C 2247 401.88 2471 362.12 2696 362.12" fill="none" stroke="rgb(143, 92, 5)" stroke-opacity="0" stroke-width="2" transform="matrix(1,0,0,1,-258.6239929199219,0)" style="transform:matrix(1, 0, 0, 1, -258.624, 0);animation-play-state:paused" ></path>
<path d="M 0 363.766 C 225 363.766 449 400.234 674 400.234 C 899 400.234 1123 363.766 1348 363.766 C 1573 363.766 1797 400.234 2022 400.234 C 2247 400.234 2471 363.766 2696 363.766" fill="none" stroke="rgb(141, 89, 6)" stroke-opacity="0" stroke-width="2" transform="matrix(1,0,0,1,-265.8078918457031,0)" style="transform:matrix(1, 0, 0, 1, -265.808, 0);animation-play-state:paused" ></path>
<path d="M 0 365.46 C 225 365.46 449 398.54 674 398.54 C 899 398.54 1123 365.46 1348 365.46 C 1573 365.46 1797 398.54 2022 398.54 C 2247 398.54 2471 365.46 2696 365.46" fill="none" stroke="rgb(139, 86, 6)" stroke-opacity="0" stroke-width="2" transform="matrix(1,0,0,1,-272.9917907714844,0)" style="transform:matrix(1, 0, 0, 1, -272.992, 0);animation-play-state:paused" ></path>
<path d="M 0 367.199 C 225 367.199 449 396.801 674 396.801 C 899 396.801 1123 367.199 1348 367.199 C 1573 367.199 1797 396.801 2022 396.801 C 2247 396.801 2471 367.199 2696 367.199" fill="none" stroke="rgb(137, 84, 6)" stroke-opacity="0" stroke-width="2" transform="matrix(1,0,0,1,-280.1759948730469,0)" style="transform:matrix(1, 0, 0, 1, -280.176, 0);animation-play-state:paused" ></path>
<path d="M 0 368.981 C 225 368.981 449 395.019 674 395.019 C 899 395.019 1123 368.981 1348 368.981 C 1573 368.981 1797 395.019 2022 395.019 C 2247 395.019 2471 368.981 2696 368.981" fill="none" stroke="rgb(136, 82, 6)" stroke-opacity="0" stroke-width="2" transform="matrix(1,0,0,1,-287.3598937988281,0)" style="transform:matrix(1, 0, 0, 1, -287.36, 0);animation-play-state:paused" ></path>
<path d="M 0 370.801 C 225 370.801 449 393.199 674 393.199 C 899 393.199 1123 370.801 1348 370.801 C 1573 370.801 1797 393.199 2022 393.199 C 2247 393.199 2471 370.801 2696 370.801" fill="none" stroke="rgb(135, 81, 6)" stroke-opacity="0" stroke-width="2" transform="matrix(1,0,0,1,-294.54376220703125,0)" style="transform:matrix(1, 0, 0, 1, -294.544, 0);animation-play-state:paused" ></path>
<path d="M 0 372.655 C 225 372.655 449 391.345 674 391.345 C 899 391.345 1123 372.655 1348 372.655 C 1573 372.655 1797 391.345 2022 391.345 C 2247 391.345 2471 372.655 2696 372.655" fill="none" stroke="rgb(134, 80, 6)" stroke-opacity="0" stroke-width="2" transform="matrix(1,0,0,1,-301.7279968261719,0)" style="transform:matrix(1, 0, 0, 1, -301.728, 0);animation-play-state:paused" ></path>
<path d="M 0 374.538 C 225 374.538 449 389.463 674 389.463 C 899 389.463 1123 374.538 1348 374.538 C 1573 374.538 1797 389.463 2022 389.463 C 2247 389.463 2471 374.538 2696 374.538" fill="none" stroke="rgb(133, 79, 6)" stroke-opacity="0" stroke-width="2" transform="matrix(1,0,0,1,-308.9118957519531,0)" style="transform:matrix(1, 0, 0, 1, -308.912, 0);animation-play-state:paused" ></path>
<path d="M 0 376.443 C 225 376.443 449 387.557 674 387.557 C 899 387.557 1123 376.443 1348 376.443 C 1573 376.443 1797 387.557 2022 387.557 C 2247 387.557 2471 376.443 2696 376.443" fill="none" stroke="rgb(133, 78, 6)" stroke-opacity="0" stroke-width="2" transform="matrix(1,0,0,1,-316.09576416015625,0)" style="transform:matrix(1, 0, 0, 1, -316.096, 0);animation-play-state:paused" ></path>
<path d="M 0 378.367 C 225 378.367 449 385.633 674 385.633 C 899 385.633 1123 378.367 1348 378.367 C 1573 378.367 1797 385.633 2022 385.633 C 2247 385.633 2471 378.367 2696 378.367" fill="none" stroke="rgb(132, 77, 6)" stroke-opacity="0" stroke-width="2" transform="matrix(1,0,0,1,-323.2799987792969,0)" style="transform:matrix(1, 0, 0, 1, -323.28, 0);animation-play-state:paused" ></path>
<path d="M 0 380.302 C 225 380.302 449 383.698 674 383.698 C 899 383.698 1123 380.302 1348 380.302 C 1573 380.302 1797 383.698 2022 383.698 C 2247 383.698 2471 380.302 2696 380.302" fill="none" stroke="rgb(132, 77, 6)" stroke-opacity="0.022727272727272728" stroke-width="2" transform="matrix(1,0,0,1,-330.4638977050781,0)" style="transform:matrix(1, 0, 0, 1, -330.464, 0);animation-play-state:paused" ></path>
<path d="M 0 382.243 C 225 382.243 449 381.757 674 381.757 C 899 381.757 1123 382.243 1348 382.243 C 1573 382.243 1797 381.757 2022 381.757 C 2247 381.757 2471 382.243 2696 382.243" fill="none" stroke="rgb(132, 77, 6)" stroke-opacity="0.045454545454545456" stroke-width="2" transform="matrix(1,0,0,1,-337.64776611328125,0)" style="transform:matrix(1, 0, 0, 1, -337.648, 0);animation-play-state:paused" ></path>
<path d="M 0 384.183 C 225 384.183 449 379.818 674 379.818 C 899 379.818 1123 384.183 1348 384.183 C 1573 384.183 1797 379.818 2022 379.818 C 2247 379.818 2471 384.183 2696 384.183" fill="none" stroke="rgb(132, 77, 6)" stroke-opacity="0.06818181818181818" stroke-width="2" transform="matrix(1,0,0,1,-344.83203125,0)" style="transform:matrix(1, 0, 0, 1, -344.832, 0);animation-play-state:paused" ></path>
<path d="M 0 386.115 C 225 386.115 449 377.885 674 377.885 C 899 377.885 1123 386.115 1348 386.115 C 1573 386.115 1797 377.885 2022 377.885 C 2247 377.885 2471 386.115 2696 386.115" fill="none" stroke="rgb(132, 77, 6)" stroke-opacity="0.09090909090909091" stroke-width="2" transform="matrix(1,0,0,1,-352.0158996582031,0)" style="transform:matrix(1, 0, 0, 1, -352.016, 0);animation-play-state:paused" ></path>
<path d="M 0 388.035 C 225 388.035 449 375.965 674 375.965 C 899 375.965 1123 388.035 1348 388.035 C 1573 388.035 1797 375.965 2022 375.965 C 2247 375.965 2471 388.035 2696 388.035" fill="none" stroke="rgb(133, 77, 6)" stroke-opacity="0.11363636363636363" stroke-width="2" transform="matrix(1,0,0,1,-359.19976806640625,0)" style="transform:matrix(1, 0, 0, 1, -359.2, 0);animation-play-state:paused" ></path>
<path d="M 0 389.936 C 225 389.936 449 374.065 674 374.065 C 899 374.065 1123 389.936 1348 389.936 C 1573 389.936 1797 374.065 2022 374.065 C 2247 374.065 2471 389.936 2696 389.936" fill="none" stroke="rgb(133, 77, 6)" stroke-opacity="0.13636363636363635" stroke-width="2" transform="matrix(1,0,0,1,-366.384033203125,0)" style="transform:matrix(1, 0, 0, 1, -366.384, 0);animation-play-state:paused" ></path>
<path d="M 0 391.811 C 225 391.811 449 372.189 674 372.189 C 899 372.189 1123 391.811 1348 391.811 C 1573 391.811 1797 372.189 2022 372.189 C 2247 372.189 2471 391.811 2696 391.811" fill="none" stroke="rgb(134, 78, 6)" stroke-opacity="0.1590909090909091" stroke-width="2" transform="matrix(1,0,0,1,-373.5679016113281,0)" style="transform:matrix(1, 0, 0, 1, -373.568, 0);animation-play-state:paused" ></path>
<path d="M 0 393.657 C 225 393.657 449 370.343 674 370.343 C 899 370.343 1123 393.657 1348 393.657 C 1573 393.657 1797 370.343 2022 370.343 C 2247 370.343 2471 393.657 2696 393.657" fill="none" stroke="rgb(135, 78, 6)" stroke-opacity="0.18181818181818182" stroke-width="2" transform="matrix(1,0,0,1,-380.75177001953125,0)" style="transform:matrix(1, 0, 0, 1, -380.752, 0);animation-play-state:paused" ></path>
<path d="M 0 395.468 C 225 395.468 449 368.532 674 368.532 C 899 368.532 1123 395.468 1348 395.468 C 1573 395.468 1797 368.532 2022 368.532 C 2247 368.532 2471 395.468 2696 395.468" fill="none" stroke="rgb(136, 79, 6)" stroke-opacity="0.20454545454545456" stroke-width="2" transform="matrix(1,0,0,1,-387.93597412109375,0)" style="transform:matrix(1, 0, 0, 1, -387.936, 0);animation-play-state:paused" ></path>
<path d="M 0 397.24 C 225 397.24 449 366.76 674 366.76 C 899 366.76 1123 397.24 1348 397.24 C 1573 397.24 1797 366.76 2022 366.76 C 2247 366.76 2471 397.24 2696 397.24" fill="none" stroke="rgb(138, 79, 6)" stroke-opacity="0.22727272727272727" stroke-width="2" transform="matrix(1,0,0,1,-395.1199035644531,0)" style="transform:matrix(1, 0, 0, 1, -395.12, 0);animation-play-state:paused" ></path>
<path d="M 0 398.968 C 225 398.968 449 365.032 674 365.032 C 899 365.032 1123 398.968 1348 398.968 C 1573 398.968 1797 365.032 2022 365.032 C 2247 365.032 2471 398.968 2696 398.968" fill="none" stroke="rgb(139, 80, 6)" stroke-opacity="0.25" stroke-width="2" transform="matrix(1,0,0,1,-402.30377197265625,0)" style="transform:matrix(1, 0, 0, 1, -402.304, 0);animation-play-state:paused" ></path>
<path d="M 0 400.65 C 225 400.65 449 363.35 674 363.35 C 899 363.35 1123 400.65 1348 400.65 C 1573 400.65 1797 363.35 2022 363.35 C 2247 363.35 2471 400.65 2696 400.65" fill="none" stroke="rgb(141, 80, 6)" stroke-opacity="0.2727272727272727" stroke-width="2" transform="matrix(1,0,0,1,-409.48797607421875,0)" style="transform:matrix(1, 0, 0, 1, -409.488, 0);animation-play-state:paused" ></path>
<path d="M 0 402.283 C 225 402.283 449 361.717 674 361.717 C 899 361.717 1123 402.283 1348 402.283 C 1573 402.283 1797 361.717 2022 361.717 C 2247 361.717 2471 402.283 2696 402.283" fill="none" stroke="rgb(144, 81, 5)" stroke-opacity="0.29545454545454547" stroke-width="2" transform="matrix(1,0,0,1,-416.6719055175781,0)" style="transform:matrix(1, 0, 0, 1, -416.672, 0);animation-play-state:paused" ></path>
<path d="M 0 403.864 C 225 403.864 449 360.136 674 360.136 C 899 360.136 1123 403.864 1348 403.864 C 1573 403.864 1797 360.136 2022 360.136 C 2247 360.136 2471 403.864 2696 403.864" fill="none" stroke="rgb(146, 82, 5)" stroke-opacity="0.3181818181818182" stroke-width="2" transform="matrix(1,0,0,1,-423.85577392578125,0)" style="transform:matrix(1, 0, 0, 1, -423.856, 0);animation-play-state:paused" ></path>
<path d="M 0 405.392 C 225 405.392 449 358.608 674 358.608 C 899 358.608 1123 405.392 1348 405.392 C 1573 405.392 1797 358.608 2022 358.608 C 2247 358.608 2471 405.392 2696 405.392" fill="none" stroke="rgb(149, 83, 5)" stroke-opacity="0.3409090909090909" stroke-width="2" transform="matrix(1,0,0,1,-431.03997802734375,0)" style="transform:matrix(1, 0, 0, 1, -431.04, 0);animation-play-state:paused" ></path>
<path d="M 0 406.864 C 225 406.864 449 357.136 674 357.136 C 899 357.136 1123 406.864 1348 406.864 C 1573 406.864 1797 357.136 2022 357.136 C 2247 357.136 2471 406.864 2696 406.864" fill="none" stroke="rgb(152, 84, 5)" stroke-opacity="0.36363636363636365" stroke-width="2" transform="matrix(1,0,0,1,-438.223876953125,0)" style="transform:matrix(1, 0, 0, 1, -438.224, 0);animation-play-state:paused" ></path>
<path d="M 0 408.281 C 225 408.281 449 355.72 674 355.72 C 899 355.72 1123 408.281 1348 408.281 C 1573 408.281 1797 355.72 2022 355.72 C 2247 355.72 2471 408.281 2696 408.281" fill="none" stroke="rgb(155, 85, 5)" stroke-opacity="0.38636363636363635" stroke-width="2" transform="matrix(1,0,0,1,-445.4078063964844,0)" style="transform:matrix(1, 0, 0, 1, -445.408, 0);animation-play-state:paused" ></path>
<path d="M 0 409.64 C 225 409.64 449 354.36 674 354.36 C 899 354.36 1123 409.64 1348 409.64 C 1573 409.64 1797 354.36 2022 354.36 C 2247 354.36 2471 409.64 2696 409.64" fill="none" stroke="rgb(159, 86, 5)" stroke-opacity="0.4090909090909091" stroke-width="2" transform="matrix(1,0,0,1,-452.59197998046875,0)" style="transform:matrix(1, 0, 0, 1, -452.592, 0);animation-play-state:paused" ></path>
<path d="M 0 410.943 C 225 410.943 449 353.057 674 353.057 C 899 353.057 1123 410.943 1348 410.943 C 1573 410.943 1797 353.057 2022 353.057 C 2247 353.057 2471 410.943 2696 410.943" fill="none" stroke="rgb(163, 88, 4)" stroke-opacity="0.4318181818181818" stroke-width="2" transform="matrix(1,0,0,1,-459.77587890625,0)" style="transform:matrix(1, 0, 0, 1, -459.776, 0);animation-play-state:paused" ></path>
<path d="M 0 412.188 C 225 412.188 449 351.812 674 351.812 C 899 351.812 1123 412.188 1348 412.188 C 1573 412.188 1797 351.812 2022 351.812 C 2247 351.812 2471 412.188 2696 412.188" fill="none" stroke="rgb(167, 89, 4)" stroke-opacity="0.45454545454545453" stroke-width="2" transform="matrix(1,0,0,1,-466.9598083496094,0)" style="transform:matrix(1, 0, 0, 1, -466.96, 0);animation-play-state:paused" ></path>
<path d="M 0 413.377 C 225 413.377 449 350.623 674 350.623 C 899 350.623 1123 413.377 1348 413.377 C 1573 413.377 1797 350.623 2022 350.623 C 2247 350.623 2471 413.377 2696 413.377" fill="none" stroke="rgb(172, 91, 4)" stroke-opacity="0.4772727272727273" stroke-width="2" transform="matrix(1,0,0,1,-474.1440124511719,0)" style="transform:matrix(1, 0, 0, 1, -474.144, 0);animation-play-state:paused" ></path>
<path d="M 0 414.509 C 225 414.509 449 349.491 674 349.491 C 899 349.491 1123 414.509 1348 414.509 C 1573 414.509 1797 349.491 2022 349.491 C 2247 349.491 2471 414.509 2696 414.509" fill="none" stroke="rgb(177, 93, 4)" stroke-opacity="0.5" stroke-width="2" transform="matrix(1,0,0,1,-481.327880859375,0)" style="transform:matrix(1, 0, 0, 1, -481.328, 0);animation-play-state:paused" ></path>
<path d="M 0 415.585 C 225 415.585 449 348.415 674 348.415 C 899 348.415 1123 415.585 1348 415.585 C 1573 415.585 1797 348.415 2022 348.415 C 2247 348.415 2471 415.585 2696 415.585" fill="none" stroke="rgb(182, 94, 4)" stroke-opacity="0.5227272727272727" stroke-width="2" transform="matrix(1,0,0,1,-488.5117492675781,0)" style="transform:matrix(1, 0, 0, 1, -488.512, 0);animation-play-state:paused" ></path>
<path d="M 0 416.606 C 225 416.606 449 347.394 674 347.394 C 899 347.394 1123 416.606 1348 416.606 C 1573 416.606 1797 347.394 2022 347.394 C 2247 347.394 2471 416.606 2696 416.606" fill="none" stroke="rgb(187, 96, 3)" stroke-opacity="0.5454545454545454" stroke-width="2" transform="matrix(1,0,0,1,-495.6960144042969,0)" style="transform:matrix(1, 0, 0, 1, -495.696, 0);animation-play-state:paused" ></path>
<path d="M 0 417.573 C 225 417.573 449 346.427 674 346.427 C 899 346.427 1123 417.573 1348 417.573 C 1573 417.573 1797 346.427 2022 346.427 C 2247 346.427 2471 417.573 2696 417.573" fill="none" stroke="rgb(192, 98, 3)" stroke-opacity="0.5681818181818182" stroke-width="2" transform="matrix(1,0,0,1,-502.8798828125,0)" style="transform:matrix(1, 0, 0, 1, -502.88, 0);animation-play-state:paused" ></path>
<path d="M 0 418.486 C 225 418.486 449 345.514 674 345.514 C 899 345.514 1123 418.486 1348 418.486 C 1573 418.486 1797 345.514 2022 345.514 C 2247 345.514 2471 418.486 2696 418.486" fill="none" stroke="rgb(197, 100, 3)" stroke-opacity="0.5909090909090909" stroke-width="2" transform="matrix(1,0,0,1,-510.0637512207031,0)" style="transform:matrix(1, 0, 0, 1, -510.064, 0);animation-play-state:paused" ></path>
<path d="M 0 419.348 C 225 419.348 449 344.652 674 344.652 C 899 344.652 1123 419.348 1348 419.348 C 1573 419.348 1797 344.652 2022 344.652 C 2247 344.652 2471 419.348 2696 419.348" fill="none" stroke="rgb(202, 102, 3)" stroke-opacity="0.6136363636363636" stroke-width="2" transform="matrix(1,0,0,1,-517.2479858398438,0)" style="transform:matrix(1, 0, 0, 1, -517.248, 0);animation-play-state:paused" ></path>
<path d="M 0 420.158 C 225 420.158 449 343.842 674 343.842 C 899 343.842 1123 420.158 1348 420.158 C 1573 420.158 1797 343.842 2022 343.842 C 2247 343.842 2471 420.158 2696 420.158" fill="none" stroke="rgb(207, 103, 2)" stroke-opacity="0.6363636363636364" stroke-width="2" transform="matrix(1,0,0,1,-524.431884765625,0)" style="transform:matrix(1, 0, 0, 1, -524.432, 0);animation-play-state:paused" ></path>
<path d="M 0 420.919 C 225 420.919 449 343.081 674 343.081 C 899 343.081 1123 420.919 1348 420.919 C 1573 420.919 1797 343.081 2022 343.081 C 2247 343.081 2471 420.919 2696 420.919" fill="none" stroke="rgb(212, 105, 2)" stroke-opacity="0.6590909090909091" stroke-width="2" transform="matrix(1,0,0,1,-531.6157836914062,0)" style="transform:matrix(1, 0, 0, 1, -531.616, 0);animation-play-state:paused" ></path></g></svg>